<svg width="64" height="64" viewBox="0 0 64 64" fill="none" xmlns="http://www.w3.org/2000/svg">
  <defs>
    <!-- Main gradient for logo -->
    <linearGradient id="logoGradient" x1="0%" y1="0%" x2="100%" y2="100%">
      <stop offset="0%" style="stop-color:#79a1ff;stop-opacity:1" />
      <stop offset="100%" style="stop-color:#f48fb1;stop-opacity:1" />
    </linearGradient>
    
    <!-- Background gradient -->
    <radialGradient id="backgroundGradient" cx="50%" cy="50%" r="50%">
      <stop offset="0%" style="stop-color:#0a0f1f;stop-opacity:1" />
      <stop offset="70%" style="stop-color:#070b16;stop-opacity:1" />
      <stop offset="100%" style="stop-color:#0a0f1f;stop-opacity:1" />
    </radialGradient>
    
    <!-- Glow effect -->
    <filter id="glow" x="-50%" y="-50%" width="200%" height="200%">
      <feGaussianBlur stdDeviation="2" result="coloredBlur"/>
      <feMerge> 
        <feMergeNode in="coloredBlur"/>
        <feMergeNode in="SourceGraphic"/>
      </feMerge>
    </filter>
  </defs>
  
  <!-- Background -->
  <rect width="64" height="64" fill="url(#backgroundGradient)" rx="12"/>
  
  <!-- Outer glow ring -->
  <circle cx="32" cy="32" r="28" fill="none" stroke="url(#logoGradient)" stroke-width="1" opacity="0.4" filter="url(#glow)"/>
  
  <!-- Inner background circle -->
  <circle cx="32" cy="32" r="24" fill="#0a0f1f" opacity="0.9"/>
  
  <!-- Main logo content -->
  <g transform="translate(32, 32)">
    <!-- H shape -->
    <rect x="-8" y="-8" width="2" height="16" fill="url(#logoGradient)" rx="1"/>
    <rect x="-8" y="-1" width="16" height="2" fill="url(#logoGradient)" rx="1"/>
    <rect x="6" y="-8" width="2" height="16" fill="url(#logoGradient)" rx="1"/>
    
    <!-- I shape -->
    <rect x="10" y="-8" width="2" height="16" fill="url(#logoGradient)" rx="1"/>
    
    <!-- Tech circuit elements -->
    <circle cx="-4" cy="-4" r="1" fill="url(#logoGradient)" opacity="0.7"/>
    <circle cx="4" cy="-4" r="1" fill="url(#logoGradient)" opacity="0.7"/>
    <circle cx="-4" cy="4" r="1" fill="url(#logoGradient)" opacity="0.7"/>
    <circle cx="4" cy="4" r="1" fill="url(#logoGradient)" opacity="0.7"/>
    
    <!-- Connection lines -->
    <path d="M-4 -4 L4 -4" stroke="url(#logoGradient)" stroke-width="0.5" opacity="0.5"/>
    <path d="M-4 4 L4 4" stroke="url(#logoGradient)" stroke-width="0.5" opacity="0.5"/>
    <path d="M-4 -4 L-4 4" stroke="url(#logoGradient)" stroke-width="0.5" opacity="0.5"/>
    <path d="M4 -4 L4 4" stroke="url(#logoGradient)" stroke-width="0.5" opacity="0.5"/>
  </g>
</svg>
