<svg width="64" height="64" viewBox="0 0 64 64" fill="none" xmlns="http://www.w3.org/2000/svg">
  <!-- Background circle with gradient -->
  <defs>
    <linearGradient id="logoGradient" x1="0%" y1="0%" x2="100%" y2="100%">
      <stop offset="0%" style="stop-color:#79a1ff;stop-opacity:1" />
      <stop offset="100%" style="stop-color:#f48fb1;stop-opacity:1" />
    </linearGradient>
    <linearGradient id="textGradient" x1="0%" y1="0%" x2="100%" y2="0%">
      <stop offset="0%" style="stop-color:#79a1ff;stop-opacity:1" />
      <stop offset="100%" style="stop-color:#f48fb1;stop-opacity:1" />
    </linearGradient>
  </defs>
  
  <!-- Main icon: Abstract "H" and "I" combined -->
  <g transform="translate(8, 8)">
    <!-- H shape -->
    <rect x="4" y="4" width="4" height="32" fill="url(#logoGradient)" rx="2"/>
    <rect x="4" y="20" width="24" height="4" fill="url(#logoGradient)" rx="2"/>
    <rect x="24" y="4" width="4" height="32" fill="url(#logoGradient)" rx="2"/>
    
    <!-- I shape (integrated) -->
    <rect x="32" y="4" width="4" height="32" fill="url(#logoGradient)" rx="2"/>
    
    <!-- Tech circuit elements -->
    <circle cx="12" cy="12" r="2" fill="url(#logoGradient)" opacity="0.6"/>
    <circle cx="20" cy="12" r="2" fill="url(#logoGradient)" opacity="0.6"/>
    <circle cx="12" cy="28" r="2" fill="url(#logoGradient)" opacity="0.6"/>
    <circle cx="20" cy="28" r="2" fill="url(#logoGradient)" opacity="0.6"/>
    
    <!-- Connection lines -->
    <path d="M12 12 L20 12" stroke="url(#logoGradient)" stroke-width="1" opacity="0.4"/>
    <path d="M12 28 L20 28" stroke="url(#logoGradient)" stroke-width="1" opacity="0.4"/>
    <path d="M12 12 L12 28" stroke="url(#logoGradient)" stroke-width="1" opacity="0.4"/>
    <path d="M20 12 L20 28" stroke="url(#logoGradient)" stroke-width="1" opacity="0.4"/>
  </g>
</svg>

